# xmcd
#
# Track frame offsets:
#	182
#	4457
#	19020
#	35625
#	52122
#	66882
#	81450
#	100880
#	104407
#	120662
#	140462
#	147572
#	159867
#	177022
#
# Disc length: 2560 seconds
#
# Revision: 3
# Processed by: cddbd v1.5.1PL2 Copyright (c) Steve Scherf et al.
# Submitted via: dBpowerAMP V4.0
#
DISCID=c409fe0e
DTITLE=Carlene Carter - Little Love Letters
DYEAR=1993
DGENRE=Country
TTITLE0=Little Love Letter #1
TTITLE1=Every Little Thing
TTITLE2=Wastin' Time With You
TTITLE3=Unbreakable Heart
TTITLE4=Sweet Meant To Be
TTITLE5=Nowhere Train
TTITLE6=Long Hard Fall
TTITLE7=Little Love Letter #2
TTITLE8=I Love You 'Cause I Want To
TTITLE9=World Of Miracles
TTITLE10=First Kiss
TTITLE11=Hallelujah In My Heart
TTITLE12=The Rain
TTITLE13=Heart Is Right
EXTD=
EXTT0=
EXTT1=
EXTT2=
EXTT3=
EXTT4=
EXTT5=
EXTT6=
EXTT7=
EXTT8=
EXTT9=
EXTT10=
EXTT11=
EXTT12=
EXTT13=
PLAYORDER=
